HIERARCHY
ROOT Hips
{
	OFFSET 0.00000 0.00000 0.00000
	CHANNELS 6 Xposition Yposition Zposition Zrotation Yrotation Xrotation 
	JOINT LHipJoint
	{
		OFFSET 0 0 0
		CHANNELS 3 Zrotation Yrotation Xrotation
		JOINT LeftHip
		{
			OFFSET 1.38691 -1.89057 0.78360
			CHANNELS 3 Zrotation Yrotation Xrotation
			JOINT LeftKnee
			{
				OFFSET 2.59731 -7.13606 0.00000
				CHANNELS 3 Zrotation Yrotation Xrotation
				JOINT LeftAnkle
				{
					OFFSET 2.70078 -7.42033 0.00000
					CHANNELS 3 Zrotation Yrotation Xrotation
					JOINT LeftToe
					{
						OFFSET 0.16751 -0.46024 2.68862
						CHANNELS 3 Zrotation Yrotation Xrotation
						End Site
						{
							OFFSET 0.00000 -0.00000 1.37057
						}
					}
				}
			}
		}
	}
	JOINT RHipJoint
	{
		OFFSET 0 0 0
		CHANNELS 3 Zrotation Yrotation Xrotation
		JOINT RightHip
		{
			OFFSET -1.38190 -1.89056 0.78359
			CHANNELS 3 Zrotation Yrotation Xrotation
			JOINT RightKnee
			{
				OFFSET -2.57785 -7.08258 0.00000
				CHANNELS 3 Zrotation Yrotation Xrotation
				JOINT RightAnkle
				{
					OFFSET -2.77908 -7.63547 0.00000
					CHANNELS 3 Zrotation Yrotation Xrotation
					JOINT RightToe
					{
						OFFSET -0.17921 -0.49237 2.62360
						CHANNELS 3 Zrotation Yrotation Xrotation
						End Site
						{
							OFFSET -0.00000 -0.00000 1.34085
						}
					}
				}
			}
		}
	}
	JOINT lowerback
	{
		OFFSET 0 0 0
		CHANNELS 3 Zrotation Yrotation Xrotation
		JOINT Chest
		{
			OFFSET -0.10749 2.04110 -0.22549
			CHANNELS 3 Zrotation Yrotation Xrotation
			JOINT Chest2
			{
				OFFSET 0.01213 2.05840 0.00691
				CHANNELS 3 Zrotation Yrotation Xrotation
				JOINT lowerneck
				{
					OFFSET 0 0 0
					CHANNELS 3 Zrotation Yrotation Xrotation
					JOINT Neck
					{
						OFFSET 0.06585 1.81215 0.35449
						CHANNELS 3 Zrotation Yrotation Xrotation
						JOINT Head
						{
							OFFSET -0.04315 1.87555 -0.27307
							CHANNELS 3 Zrotation Yrotation Xrotation
							End Site
							{
								OFFSET -0.01775 1.89740 -0.13294
							}
						}
					}
				}
				JOINT LeftCollar
				{
					OFFSET 0 0 0
					CHANNELS 3 Zrotation Yrotation Xrotation
					JOINT LeftShoulder
					{
						OFFSET 2.98012 1.63606 0.28888
CHANNELS 3 Zrotation Xrotation Yrotation
						JOINT LeftElbow
						{
OFFSET 0 -5.598640 -0.000000
CHANNELS 3 Zrotation Xrotation Yrotation
							JOINT LeftWrist
							{
OFFSET 0 -3.595420 -0.000000
CHANNELS 3 Zrotation Xrotation Yrotation
								JOINT lhand
								{
									OFFSET 0 0 0
CHANNELS 3 Zrotation Xrotation Yrotation
									JOINT LFingers
									{
OFFSET 0 -0.572010 -0.000000
CHANNELS 3 Zrotation Xrotation Yrotation
										End Site
										{
OFFSET 0 -0.461170 -0.000000
										}
									}
								}
								JOINT LThumb
								{
OFFSET 0 0.000000 0.000000
CHANNELS 3 Zrotation Xrotation Yrotation
									End Site
									{
OFFSET 0 -0.468210 0.468210
									}
								}
							}
						}
					}
				}
				JOINT RightCollar
				{
					OFFSET 0 0 0
					CHANNELS 3 Zrotation Yrotation Xrotation
					JOINT RightShoulder
					{
						OFFSET -3.08694 1.53706 0.36335
CHANNELS 3 Zrotation Xrotation Yrotation
						JOINT RightElbow
						{
OFFSET 0 -5.809400 -0.000000
CHANNELS 3 Zrotation Xrotation Yrotation
							JOINT RightWrist
							{
OFFSET 0 -3.669530 -0.000000
CHANNELS 3 Zrotation Xrotation Yrotation
								JOINT rhand
								{
									OFFSET 0 0 0
CHANNELS 3 Zrotation Xrotation Yrotation
									JOINT RFingers
									{
OFFSET 0 -0.578430 -0.000000
CHANNELS 3 Zrotation Xrotation Yrotation
										End Site
										{
OFFSET 0 -0.466350 -0.000000
										}
									}
								}
								JOINT RThumb
								{
OFFSET 0 0.000000 0.000000
CHANNELS 3 Zrotation Xrotation Yrotation
									End Site
									{
OFFSET 0 -0.473470 0.473470
									}
								}
							}
						}
					}
				}
			}
		}
	}
}
MOTION
Frames: 8
Frame Time: 0.008333333333333333
6.605541 17.492451 8.725919 177.037573 5.452146 177.719503 0.000000 0.000000 0.000000 -12.066758 1.435231 -22.185569 5.830808 14.262408 44.298978 0.317505 -15.771193 -14.166503 0.337334 -3.732336 -10.324823 0.000000 0.000000 0.000000 7.281200 0.765241 -24.451093 -6.763030 -15.129034 47.972191 0.533210 19.848267 -8.973870 -0.349590 3.799131 -10.512286 -6.616987 1.161842 13.825824 -0.440005 0.753566 1.724317 3.122542 0.619108 -5.999408 4.974560 2.974554 -26.329917 -2.801981 2.833171 15.398605 -1.346441 1.298147 9.236408 0.000000 0.000000 0.000000 50.728489 -53.613155 -1.061990 74.944239 -59.125909 46.999615 -17.960835 -22.493113 -48.007484 0.000000 0.000000 0.000000 -7.125000 0.000000 0.000000 -73.234540 63.657449 43.427292 0.000000 0.000000 0.000000 -44.531875 -56.059226 11.289582 -75.441246 -59.183735 -47.426323 19.537150 -21.543191 38.957372 0.000000 0.000000 0.000000 7.125000 0.000000 0.000000 60.694205 58.643570 -26.071714
6.605224 17.491753 8.727156 177.034718 5.456238 177.732508 0.000000 0.000000 0.000000 -12.069073 1.430092 -22.207106 5.831823 14.263423 44.303133 0.317315 -15.768180 -14.163109 0.336002 -3.725009 -10.304269 0.000000 0.000000 0.000000 7.276601 0.774122 -24.474280 -6.764489 -15.130303 47.977774 0.532829 19.843002 -8.972411 -0.349971 3.801193 -10.518059 -6.613561 1.164126 13.836672 -0.442416 0.754898 1.713152 3.117625 0.620123 -6.017425 4.930279 2.970462 -26.375752 -2.745742 2.829714 15.439016 -1.319924 1.300240 9.256423 0.000000 0.000000 0.000000 50.730868 -53.607065 -1.069571 74.919117 -59.122928 46.978046 -17.964705 -22.503739 -48.012051 0.000000 0.000000 0.000000 -7.125000 0.000000 0.000000 -73.245420 63.658147 43.438077 0.000000 0.000000 0.000000 -44.520424 -56.061478 11.295545 -75.411937 -59.180404 -47.401170 19.550250 -21.572373 38.963716 0.000000 0.000000 0.000000 7.125000 0.000000 0.000000 60.713015 58.644109 -26.084941
6.604907 17.491055 8.728393 177.031863 5.460330 177.745513 0.000000 0.000000 0.000000 -12.071389 1.424954 -22.228644 5.832838 14.264438 44.307288 0.317124 -15.765167 -14.159715 0.334669 -3.717682 -10.283714 0.000000 0.000000 0.000000 7.272002 0.783004 -24.497467 -6.765948 -15.131572 47.983357 0.532448 19.837736 -8.970952 -0.350352 3.803254 -10.523832 -6.610136 1.166410 13.847520 -0.444827 0.756231 1.701987 3.112709 0.621138 -6.035442 4.885999 2.966370 -26.421587 -2.689503 2.826256 15.479427 -1.293406 1.302334 9.276438 0.000000 0.000000 0.000000 50.733247 -53.600975 -1.077152 74.893995 -59.119946 46.956477 -17.968574 -22.514365 -48.016619 0.000000 0.000000 0.000000 -7.125000 0.000000 0.000000 -73.256299 63.658845 43.448862 0.000000 0.000000 0.000000 -44.508973 -56.063730 11.301508 -75.382628 -59.177074 -47.376016 19.563350 -21.601555 38.970060 0.000000 0.000000 0.000000 7.125000 0.000000 0.000000 60.731824 58.644648 -26.098168
6.604777 17.490545 8.729321 177.039366 5.464058 177.753890 0.000000 0.000000 0.000000 -12.061738 1.424388 -22.243714 5.833941 14.265530 44.311763 0.316758 -15.763916 -14.155726 0.333866 -3.713286 -10.271391 0.000000 0.000000 0.000000 7.280195 0.790585 -24.511774 -6.766999 -15.132488 47.987375 0.531814 19.833507 -8.973317 -0.350953 3.806462 -10.532823 -6.597851 1.167008 13.858071 -0.444362 0.757078 1.693719 3.105963 0.621613 -6.050098 4.856285 2.963237 -26.451974 -2.647203 2.822424 15.504985 -1.274238 1.303579 9.289125 0.000000 0.000000 0.000000 50.739307 -53.593309 -1.080877 74.871870 -59.117317 46.937486 -17.975265 -22.529916 -48.022652 0.000000 0.000000 0.000000 -7.125000 0.000000 0.000000 -73.271807 63.659311 43.463470 0.000000 0.000000 0.000000 -44.492829 -56.066335 11.311780 -75.359897 -59.174481 -47.356493 19.572065 -21.629459 38.978817 0.000000 0.000000 0.000000 7.125000 0.000000 0.000000 60.750171 58.647677 -26.114799
6.604999 17.490386 8.729670 177.066327 5.467103 177.753573 0.000000 0.000000 0.000000 -12.029607 1.432413 -22.246632 5.835210 14.266767 44.316838 0.316060 -15.765978 -14.150619 0.334056 -3.714396 -10.274531 0.000000 0.000000 0.000000 7.312422 0.795724 -24.509395 -6.767285 -15.132742 47.988453 0.530704 19.831223 -8.982864 -0.351968 3.811823 -10.547858 -6.568923 1.164438 13.868062 -0.438493 0.757015 1.690896 3.095781 0.621073 -6.058440 4.853937 2.961905 -26.453338 -2.631089 2.817888 15.502637 -1.268877 1.303230 9.288047 0.000000 0.000000 0.000000 50.752280 -53.582683 -1.077356 74.855376 -59.115350 46.923339 -17.987255 -22.554721 -48.031438 0.000000 0.000000 0.000000 -7.125000 0.000000 0.000000 -73.296009 63.659343 43.485261 0.000000 0.000000 0.000000 -44.467865 -56.069602 11.330145 -75.349525 -59.173276 -47.347548 19.572541 -21.654961 38.992107 0.000000 0.000000 0.000000 7.125000 0.000000 0.000000 60.767649 58.655385 -26.137828
6.605221 17.490228 8.730019 177.093289 5.470148 177.753255 0.000000 0.000000 0.000000 -11.997475 1.440438 -22.249550 5.836478 14.268004 44.321913 0.315362 -15.768040 -14.145512 0.334247 -3.715506 -10.277671 0.000000 0.000000 0.000000 7.344649 0.800862 -24.507016 -6.767570 -15.132996 47.989532 0.529594 19.828939 -8.992412 -0.352983 3.817183 -10.562893 -6.539995 1.161869 13.878054 -0.432625 0.756951 1.688073 3.085599 0.620534 -6.066782 4.851590 2.960573 -26.454702 -2.614976 2.813353 15.500290 -1.263517 1.302881 9.286968 0.000000 0.000000 0.000000 50.765253 -53.572057 -1.073835 74.838882 -59.113384 46.909192 -17.999245 -22.579526 -48.040225 0.000000 0.000000 0.000000 -7.125000 0.000000 0.000000 -73.320211 63.659374 43.507052 0.000000 0.000000 0.000000 -44.442902 -56.072869 11.348511 -75.339152 -59.172071 -47.338603 19.573017 -21.680464 39.005398 0.000000 0.000000 0.000000 7.125000 0.000000 0.000000 60.785126 58.663093 -26.160856
6.605394 17.490156 8.730152 177.108514 5.470055 177.751765 0.000000 0.000000 0.000000 -11.979352 1.445541 -22.250035 5.837549 14.269043 44.326191 0.314751 -15.771751 -14.142055 0.334332 -3.716023 -10.279138 0.000000 0.000000 0.000000 7.362607 0.800349 -24.504612 -6.767942 -15.133324 47.990956 0.529213 19.829182 -8.996758 -0.353676 3.820839 -10.573147 -6.522593 1.158830 13.884092 -0.429697 0.754979 1.686844 3.079204 0.619254 -6.071103 4.857625 2.959061 -26.448950 -2.610469 2.808316 15.490129 -1.263684 1.301476 9.282258 0.000000 0.000000 0.000000 50.779419 -53.562197 -1.068047 74.822592 -59.111442 46.895218 -18.014626 -22.606319 -48.047714 0.000000 0.000000 0.000000 -7.125000 0.000000 0.000000 -73.344530 63.657862 43.526694 0.000000 0.000000 0.000000 -44.419810 -56.077421 11.365419 -75.327810 -59.170754 -47.328837 19.576668 -21.704552 39.016137 0.000000 0.000000 0.000000 7.125000 0.000000 0.000000 60.801918 58.668534 -26.180042
6.605362 17.490441 8.729390 177.075209 5.456987 177.745421 0.000000 0.000000 0.000000 -12.019160 1.438563 -22.240455 5.837803 14.269265 44.327175 0.314497 -15.782282 -14.145417 0.333983 -3.714088 -10.273682 0.000000 0.000000 0.000000 7.321562 0.776464 -24.502106 -6.768672 -15.133958 47.993811 0.531845 19.839871 -8.979598 -0.353042 3.817445 -10.563631 -6.552853 1.153850 13.873784 -0.438928 0.745114 1.692205 3.088466 0.614908 -6.058796 4.898321 2.956809 -26.413773 -2.653956 2.801211 15.447657 -1.286713 1.295703 9.262528 0.000000 0.000000 0.000000 50.798514 -53.555504 -1.052885 74.807144 -59.109602 46.881959 -18.044030 -22.641338 -48.049839 0.000000 0.000000 0.000000 -7.125000 0.000000 0.000000 -73.369335 63.649964 43.537447 0.000000 0.000000 0.000000 -44.404458 -56.087286 11.376298 -75.312458 -59.168978 -47.315673 19.593447 -21.722790 39.016327 0.000000 0.000000 0.000000 7.125000 0.000000 0.000000 60.815874 58.664601 -26.183341
